<?xml version="1.0" encoding="utf-8"?>
<!-- Generator: Adobe Illustrator 23.1.0, SVG Export Plug-In . SVG Version: 6.00 Build 0)  -->
<svg version="1.1" id="Layer_1" xmlns="http://www.w3.org/2000/svg" xmlns:xlink="http://www.w3.org/1999/xlink" x="0px" y="0px"
	 viewBox="0 0 512 512" style="enable-background:new 0 0 512 512;" xml:space="preserve">
<g>
	<g>
		<g>
			<path d="M352.8,166.6c-3.9-4.2-8.1-8.2-12.6-11.9c14.6-37.5,2.3-81.6-32.1-105.7c-9.9-7-20.8-11.6-31.9-14l6.9-33.7l-33.7,22.3
				L215.8,1l7.5,38.4c-15.6,6.2-29.5,16.9-39.8,31.6c-28.3,40.4-18.4,96.3,22,124.6c0.2,0.1,0.3,0.2,0.5,0.3L17.2,205l6.8,20.9
				c16.7,51.6,68.2,72.1,89.4,78.5c3.1,6.9,8.4,16.7,16.6,26.4c19.5,22.9,45.7,33.4,75.8,30.6c-0.1,0.4-0.2,0.8-0.3,1.3
				c-8.3,33.9-25.9,68.9-26.1,69.2l-30.7,60.5l95.1-67.3l45.6,100.4l8.6-55.7c0.1-0.8,11.8-73.5,51.5-137.3
				c10.8,1.3,21.9,0.6,33-2.2c21.8-5.4,39.2-17.1,51.1-34.1c4.4-6.3,8-13.3,10.9-21c4.4-11.9,6-22.9,6.6-30.5
				c17.7-13.2,59.2-50.1,57.2-104.3l-0.8-22L352.8,166.6z M211,90.3c17.7-25.2,52.6-31.4,77.8-13.7c25.2,17.7,31.4,52.6,13.7,77.8
				s-52.6,31.4-77.8,13.7C199.5,150.5,193.4,115.6,211,90.3z M322.1,183.5c14.1,12.6,23.4,28.9,26.5,46.9
				c1.8,10.3,1.5,20.8-0.7,31.4c-3.4-19.4-9.7-35-16.1-46.8c-5.5-10.1-11.5-18.2-16.9-24.5C317.4,188.3,319.8,186,322.1,183.5z
				 M156.3,309.7c-10.1-11.5-14.2-24.2-14.3-24.3l-2.8-9.5l-9.8-2.1c-0.5-0.1-40.3-8.9-62.4-37.6l143.6-6.9
				c1.6,28.6,2.5,65.2-0.1,97.3c-2.2,0.5-4.5,0.9-6.9,1.1C184.3,329.9,168.8,324,156.3,309.7z M312.1,329.8
				c-17,30.6-28.3,61.4-35.6,85.9l-18.9-41.5l-25.7,18.2c2.3-7.1,4.5-14.5,6.3-21.9l0.1-0.4c10.3-46.8,7.7-117.5,4.8-159.3
				c14,2.1,28.2,0.9,41.5-3.4C298.6,221.2,328.2,260,312.1,329.8z M425.7,221.6l-8.5,5.2l0.5,10c0,0.1,0.5,12.7-4.7,26.8
				c-6.8,18.2-19.4,29.4-38.6,34.2c-1.3,0.3-2.6,0.6-3.9,0.8c11.7-24,15.6-49.2,11.3-73.9c-1.7-10.1-4.9-19.8-9.2-29l98.9-30.7
				C460.5,199.5,426.1,221.4,425.7,221.6z"/>
		</g>
	</g>
	<g>
		<g>
			<ellipse transform="matrix(0.5736 -0.8192 0.8192 0.5736 28.0634 257.2197)" cx="261.1" cy="101.7" rx="16.8" ry="16.8"/>
		</g>
	</g>
</g>
</svg>
