<?xml version="1.0" encoding="utf-8"?>
<!-- Generator: Adobe Illustrator 23.1.0, SVG Export Plug-In . SVG Version: 6.00 Build 0)  -->
<svg version="1.1" id="Layer_1" xmlns="http://www.w3.org/2000/svg" xmlns:xlink="http://www.w3.org/1999/xlink" x="0px" y="0px"
	 viewBox="0 0 512 512" style="enable-background:new 0 0 512 512;" xml:space="preserve">
<style type="text/css">
	.st0{fill:#FFFFFF;}
</style>
<g>
	<ellipse class="st0" cx="262.2" cy="251.8" rx="5.1" ry="5.1"/>
	<path class="st0" d="M281,255.4c-0.7-1.6-4.4-1.6-8.3,0c-0.8,0.4-1.6,0.8-2.3,1.2c-1-0.3-2.1-0.4-3.3-0.4c-3.5,0-6.5,1.4-7.8,3.5
		c-1.4-0.7-3.5-1.2-5.9-1.2c-4.2,0-7.7,1.4-7.7,3.2c0,1.7,3.1,3.1,7,3.2c-0.2,0.3-0.4,0.6-0.4,1c0,1.8,3.4,3.2,7.7,3.2c0,0,0,0,0,0
		c-0.8,3.5-0.3,6.6,1.4,7.1c1.9,0.6,4.5-2.2,5.9-6.3c0.3-0.8,0.5-1.6,0.6-2.4c4.2-0.3,7.6-2.6,7.7-5.6c1-0.5,1.7-1.1,1.8-1.8
		C280,258.6,281.5,256.7,281,255.4z"/>
	<g>
		<g>
			<g>
				<path d="M270.1,255.4c-0.3-0.3-0.7-0.7-1-1c1.2-3.1,0.2-6.6-2.6-8.6c-0.8-0.6-1.7-0.9-2.6-1.1l0.6-2.7l-2.7,1.8l-2.7-1.8
					l0.6,3.1c-1.3,0.5-2.4,1.4-3.2,2.6c-2.3,3.3-1.5,7.8,1.8,10.1c0,0,0,0,0,0l-15.4,0.7l0.6,1.7c1.4,4.2,5.6,5.9,7.3,6.4
					c0.3,0.6,0.7,1.4,1.4,2.1c1.6,1.9,3.7,2.7,6.2,2.5c0,0,0,0.1,0,0.1c-0.7,2.8-2.1,5.6-2.1,5.6l-2.5,4.9l7.7-5.5l3.7,8.2l0.7-4.5
					c0-0.1,1-6,4.2-11.2c0.9,0.1,1.8,0,2.7-0.2c1.8-0.4,3.2-1.4,4.2-2.8c0.4-0.5,0.7-1.1,0.9-1.7c0.4-1,0.5-1.9,0.5-2.5
					c1.4-1.1,4.8-4.1,4.7-8.5l-0.1-1.8L270.1,255.4z M258.6,249.2c1.4-2.1,4.3-2.6,6.3-1.1c2.1,1.4,2.6,4.3,1.1,6.3
					c-1.4,2.1-4.3,2.6-6.3,1.1C257.6,254.1,257.1,251.2,258.6,249.2z M267.6,256.8c1.1,1,1.9,2.4,2.2,3.8c0.1,0.8,0.1,1.7-0.1,2.6
					c-0.3-1.6-0.8-2.9-1.3-3.8c-0.4-0.8-0.9-1.5-1.4-2C267.2,257.1,267.4,257,267.6,256.8z M254.1,267c-0.8-0.9-1.2-2-1.2-2
					l-0.2-0.8l-0.8-0.2c0,0-3.3-0.7-5.1-3.1l11.7-0.6c0.1,2.3,0.2,5.3,0,7.9c-0.2,0-0.4,0.1-0.6,0.1
					C256.4,268.7,255.1,268.2,254.1,267z M266.8,268.7c-1.4,2.5-2.3,5-2.9,7l-1.5-3.4l-2.1,1.5c0.2-0.6,0.4-1.2,0.5-1.8l0,0
					c0.8-3.8,0.6-9.6,0.4-13c1.1,0.2,2.3,0.1,3.4-0.3C265.7,259.8,268.1,263,266.8,268.7z M276.1,259.9l-0.7,0.4l0,0.8
					c0,0,0,1-0.4,2.2c-0.6,1.5-1.6,2.4-3.1,2.8c-0.1,0-0.2,0-0.3,0.1c1-2,1.3-4,0.9-6c-0.1-0.8-0.4-1.6-0.7-2.4l8.1-2.5
					C278.9,258.1,276.1,259.8,276.1,259.9z"/>
			</g>
		</g>
		<g>
			<g>
				<ellipse cx="262.6" cy="250.1" rx="1.4" ry="1.4"/>
			</g>
		</g>
	</g>
</g>
</svg>
