<?xml version="1.0" encoding="iso-8859-1"?>
<!-- Generator: Adobe Illustrator 19.0.0, SVG Export Plug-In . SVG Version: 6.00 Build 0)  -->
<svg version="1.1" id="Layer_1" xmlns="http://www.w3.org/2000/svg" xmlns:xlink="http://www.w3.org/1999/xlink" x="0px" y="0px"
	 viewBox="0 0 512 512" style="enable-background:new 0 0 512 512;" xml:space="preserve">
<g>
	<g>
		<path d="M383.976,305.463c1.215-5.587,2.043-11.317,2.472-17.149c39.091-9.588,68.186-44.91,68.186-86.916
			c0-12.118-2.433-23.675-6.816-34.227l31.561-13.685l-37.593-14.852l-0.749-40.412l-27.153,28.177
			c-14.037-9.157-30.777-14.502-48.751-14.502c-49.35,0-89.501,40.149-89.501,89.499c0,0.186,0.013,0.37,0.015,0.555L160.009,52.589
			l-13.256,17.525c-32.715,43.246-19.924,97.245-13.002,118.263c-3.868,6.493-8.88,16.466-12.06,28.73
			c-7.543,29.085-1.192,56.59,18.347,79.635c-0.392,0.166-0.787,0.341-1.177,0.502c-32.553,12.625-71.312,18.284-71.694,18.338
			L0,325.181l109.646,39.277l-56.101,94.953l50.57-24.875c0.704-0.349,66.961-32.534,141.992-36.61
			c5.157,9.55,12.123,18.288,20.734,25.774c16.98,14.764,36.434,22.286,57.19,22.285c7.659,0,15.497-1.025,23.451-3.087
			c12.265-3.182,22.237-8.193,28.73-12.06c21.018,6.925,75.017,19.714,118.263-13.002L512,404.58L383.976,305.463z M365.133,145.53
			c30.807,0,55.869,25.063,55.869,55.868c0,30.806-25.062,55.869-55.869,55.869s-55.869-25.062-55.869-55.869
			C309.264,170.593,334.326,145.53,365.133,145.53z M352.482,289.989c-2.263,18.809-10.283,35.78-23.19,48.602
			c-7.422,7.374-16.208,13.188-26.117,17.377c13.974-13.902,23.122-28.044,29.05-40.02c5.114-10.33,8.338-19.895,10.377-27.924
			C345.828,288.862,349.126,289.513,352.482,289.989z M153.997,226.532c3.628-14.904,11.691-25.582,11.718-25.619l6.124-7.743
			l-3.924-9.227c-0.194-0.455-15.86-38.149-5.01-72.672l87.997,113.661c-22.543,17.682-52.002,39.428-79.757,55.765
			c-1.68-1.553-3.313-3.215-4.88-5.016C153.529,261.03,149.516,244.953,153.997,226.532z M226.906,365.716
			c-34.788,3.621-66.556,12.016-90.799,20.067l23.199-39.26L129.652,335.9c7.162-2.159,14.469-4.613,21.579-7.379l0.355-0.143
			c44.224-18.369,100.673-61.098,133.28-87.442c6.266,12.669,15.43,23.656,26.638,32.071
			C308.193,292.332,293.35,338.815,226.906,365.716z M380.689,396.691l-9.153-3.953l-7.861,6.135
			c-0.098,0.076-10.152,7.714-24.637,11.47c-18.818,4.88-35.213,0.946-50.132-12.024c-1.023-0.89-1.991-1.805-2.935-2.733
			c26.386-4.24,49.251-15.48,67.024-33.138c7.271-7.224,13.447-15.344,18.457-24.147l81.866,63.38
			C418.795,412.538,381.108,396.87,380.689,396.691z"/>
	</g>
</g>
<g>
	<g>
		<circle cx="384.562" cy="193.045" r="16.816"/>
	</g>
</g>
<g>
</g>
<g>
</g>
<g>
</g>
<g>
</g>
<g>
</g>
<g>
</g>
<g>
</g>
<g>
</g>
<g>
</g>
<g>
</g>
<g>
</g>
<g>
</g>
<g>
</g>
<g>
</g>
<g>
</g>
</svg>
